<svg xmlns="http://www.w3.org/2000/svg" viewBox="0 0 21 21"><title>circle-x</title><path d="M20.94,6.69A10.28,10.28,0,0,1,22.35,12a10.28,10.28,0,0,1-1.41,5.27,10.45,10.45,0,0,1-3.82,3.82,10.28,10.28,0,0,1-5.27,1.41,10.28,10.28,0,0,1-5.27-1.41,10.44,10.44,0,0,1-3.82-3.82A10.27,10.27,0,0,1,1.35,12,10.27,10.27,0,0,1,2.76,6.69,10.44,10.44,0,0,1,6.58,2.87a10.27,10.27,0,0,1,5.27-1.41,10.27,10.27,0,0,1,5.27,1.41A10.45,10.45,0,0,1,20.94,6.69Zm-3.88,8.36a.84.84,0,0,0-.26-.62L14.33,12,16.8,9.49a.84.84,0,0,0,.26-.62.85.85,0,0,0-.26-.63L15.57,7a.86.86,0,0,0-.63-.26.84.84,0,0,0-.62.26L11.85,9.49,9.38,7a.84.84,0,0,0-.62-.26A.86.86,0,0,0,8.13,7L6.9,8.25a.85.85,0,0,0-.26.63.84.84,0,0,0,.26.62L9.38,12,6.9,14.44a.84.84,0,0,0-.26.62.85.85,0,0,0,.26.63l1.23,1.23a.86.86,0,0,0,.63.26.84.84,0,0,0,.62-.26l2.48-2.47,2.47,2.47a.84.84,0,0,0,.62.26.86.86,0,0,0,.63-.26l1.23-1.23A.85.85,0,0,0,17.06,15.05Z" transform="translate(-1.35 -1.46)"/></svg>