<svg xmlns="http://www.w3.org/2000/svg" viewBox="0 0 21 21"><title>circle-check</title><path d="M21.09,6.73A10.27,10.27,0,0,1,22.5,12a10.27,10.27,0,0,1-1.41,5.27,10.44,10.44,0,0,1-3.82,3.82A10.27,10.27,0,0,1,12,22.5a10.27,10.27,0,0,1-5.27-1.41,10.45,10.45,0,0,1-3.82-3.82A10.28,10.28,0,0,1,1.5,12,10.28,10.28,0,0,1,2.91,6.73,10.46,10.46,0,0,1,6.73,2.91,10.27,10.27,0,0,1,12,1.5a10.28,10.28,0,0,1,5.27,1.41A10.45,10.45,0,0,1,21.09,6.73Zm-2,3.06a.85.85,0,0,0-.25-.63L17.56,7.93a.86.86,0,0,0-1.23,0l-5.58,5.56L7.67,10.4a.86.86,0,0,0-1.23,0L5.19,11.63a.85.85,0,0,0-.25.63.83.83,0,0,0,.25.62l4.95,4.95a.84.84,0,0,0,.61.26.86.86,0,0,0,.63-.26l7.42-7.42A.83.83,0,0,0,19.06,9.79Z" transform="translate(-1.5 -1.5)"/></svg>